<svg xmlns="http://www.w3.org/2000/svg" viewBox="0 0 2820.43 1216.29"><defs><style>.cls-1{font-size:211.69px;font-family:CorbelLight, Corbel;letter-spacing:0.03em;}.cls-2{fill:#383c41;}</style></defs><g id="Layer_3" data-name="Layer 3"><text class="cls-1" transform="translate(1557.58 785.53)">geomertic <tspan x="0" y="194.05">game</tspan></text></g><g id="Graphics"><path class="cls-2" d="M1415.5,523.65h-115a326.4,326.4,0,0,0-91.4-178.44c-127.48-128-334.89-128-462.36,0L29.57,1065.46H533.41A460.76,460.76,0,0,0,859.34,929.87l94-94.4L922,804l31.3,31.44c68.5-68.8,68.5-180.75,0-249.55a175.14,175.14,0,0,0-248.47,0L757,638.31a101.63,101.63,0,0,1,144.15,0,102.8,102.8,0,0,1,0,144.77h0l-94,94.4A389.48,389.48,0,0,1,607.53,984L850.89,739.63a37.15,37.15,0,0,0,0-52.39,36.76,36.76,0,0,0-52.16,0L495.91,991.37H405.49L757,638.31l-52.16-52.39L301.17,991.37h-93.5L798.88,397.6c98.71-99.14,259.32-99.14,358,0a255,255,0,0,1,0,359.59L655.53,1260.76l130.06,130.63H695.36v74.09h506.07v-74.09h-106l-179-179.76L864.28,1264,991.1,1391.39H889.92L759.85,1260.76l449.23-451.18a326.58,326.58,0,0,0,95.12-211.84h111.3Z" transform="translate(-29.57 -249.19)"/><path class="cls-2" d="M1120.79,506a50.25,50.25,0,1,0-50.25,50.47A50.41,50.41,0,0,0,1120.79,506Z" transform="translate(-29.57 -249.19)"/><path class="cls-2" d="M1748.48,556.47c61.87,0,101.48,26.14,101.48,67.06,0,26.9-17.35,49.26-44.89,57.22,32.44,6.82,53.19,33.34,53.19,67.06,0,45.47-40.74,74.26-104.12,74.26H1618.7V556.47ZM1696.8,660.66h47.53c15.47,0,25.28-9.09,25.28-23.11,0-13.64-9.81-22-25.28-22H1696.8Zm0,102.68h47.53c20,0,32.44-9.85,32.44-25.38,0-14.4-12.45-23.49-32.44-23.49H1696.8Z" transform="translate(-29.57 -249.19)"/><path class="cls-2" d="M1950.41,822.07V556.47h78.47v265.6Z" transform="translate(-29.57 -249.19)"/><path class="cls-2" d="M2253.46,750.46H2212v71.61h-78.47V556.47h123.37c70.92,0,111.66,34.1,111.66,94.34,0,39.41-15.84,68.2-44.51,84.5l53.57,86.76h-89Zm3.4-60.62c23.38,0,37-12.88,37-36.75,0-23.12-13.59-36-37-36H2212v72.75Z" transform="translate(-29.57 -249.19)"/><path class="cls-2" d="M2579.4,556.47c85.63,0,142.22,52.66,142.22,132.61s-57.72,133-144.86,133H2463.58V556.47Zm-37.35,203.84h39.61c35.84,0,60-28,60-70.47,0-42.82-26-71.23-63.75-71.23h-35.84Z" transform="translate(-29.57 -249.19)"/></g></svg>